<svg width="46" height="46" viewBox="0 0 46 46" fill="none" xmlns="http://www.w3.org/2000/svg">
<path d="M32.4942 14.9258H30.1125C29.5945 14.9258 29.102 15.1746 28.7973 15.6012L20.8144 26.6715L17.1988 21.6543C16.8941 21.2328 16.4066 20.9789 15.8836 20.9789H13.5019C13.1718 20.9789 12.9789 21.3547 13.1718 21.6238L19.4992 30.3988C19.6487 30.6075 19.8457 30.7774 20.074 30.8947C20.3023 31.012 20.5552 31.0732 20.8119 31.0732C21.0685 31.0732 21.3215 31.012 21.5498 30.8947C21.7781 30.7774 21.9751 30.6075 22.1246 30.3988L32.8192 15.5707C33.0172 15.3016 32.8242 14.9258 32.4942 14.9258Z" fill="#1890FF"/>
<path d="M23 0.25C10.4367 0.25 0.25 10.4367 0.25 23C0.25 35.5633 10.4367 45.75 23 45.75C35.5633 45.75 45.75 35.5633 45.75 23C45.75 10.4367 35.5633 0.25 23 0.25ZM23 41.8906C12.5695 41.8906 4.10938 33.4305 4.10938 23C4.10938 12.5695 12.5695 4.10938 23 4.10938C33.4305 4.10938 41.8906 12.5695 41.8906 23C41.8906 33.4305 33.4305 41.8906 23 41.8906Z" fill="#1890FF"/>
</svg>
