<svg width="13" height="12" viewBox="0 0 13 12" fill="none" xmlns="http://www.w3.org/2000/svg">
<path d="M12.1254 5.40625H2.98322L8.4551 0.65625C8.5426 0.579688 8.48947 0.4375 8.37385 0.4375H6.99104C6.9301 0.4375 6.87229 0.459375 6.82697 0.498437L0.922286 5.62187C0.868206 5.66875 0.824834 5.72671 0.795109 5.79181C0.765384 5.85692 0.75 5.92765 0.75 5.99922C0.75 6.07079 0.765384 6.14152 0.795109 6.20663C0.824834 6.27173 0.868206 6.32968 0.922286 6.37656L6.86135 11.5312C6.88479 11.5516 6.91291 11.5625 6.9426 11.5625H8.37229C8.48791 11.5625 8.54104 11.4187 8.45354 11.3438L2.98322 6.59375H12.1254C12.1942 6.59375 12.2504 6.5375 12.2504 6.46875V5.53125C12.2504 5.4625 12.1942 5.40625 12.1254 5.40625Z" fill="#F5222D"/>
</svg>
