<svg width="25" height="20" viewBox="0 0 25 20" fill="none" xmlns="http://www.w3.org/2000/svg">
<path d="M23.4375 4.26602L19.9375 6.28125V2.125C19.9375 1.15977 19.1527 0.375 18.1875 0.375H2C1.03477 0.375 0.25 1.15977 0.25 2.125V17.875C0.25 18.8402 1.03477 19.625 2 19.625H18.1875C19.1527 19.625 19.9375 18.8402 19.9375 17.875V13.7188L23.4375 15.734C24.0199 16.0703 24.75 15.6492 24.75 14.9793V5.02344C24.75 4.35078 24.0199 3.92969 23.4375 4.26602ZM17.9688 17.6562H2.21875V2.34375H17.9688V17.6562ZM22.7812 13.0898L19.9375 11.4547V8.54805L22.7812 6.91016V13.0898ZM4.1875 5.84375H7.25C7.37031 5.84375 7.46875 5.74531 7.46875 5.625V4.3125C7.46875 4.19219 7.37031 4.09375 7.25 4.09375H4.1875C4.06719 4.09375 3.96875 4.19219 3.96875 4.3125V5.625C3.96875 5.74531 4.06719 5.84375 4.1875 5.84375Z" fill="white"/>
</svg>
