<svg width="33" height="32" viewBox="0 0 33 32" fill="none" xmlns="http://www.w3.org/2000/svg">
<path d="M15.0002 16C15.0002 16.3978 15.1582 16.7794 15.4395 17.0607C15.7208 17.342 16.1024 17.5 16.5002 17.5C16.898 17.5 17.2795 17.342 17.5608 17.0607C17.8421 16.7794 18.0002 16.3978 18.0002 16C18.0002 15.6022 17.8421 15.2206 17.5608 14.9393C17.2795 14.658 16.898 14.5 16.5002 14.5C16.1024 14.5 15.7208 14.658 15.4395 14.9393C15.1582 15.2206 15.0002 15.6022 15.0002 16ZM21.2502 16C21.2502 16.3978 21.4082 16.7794 21.6895 17.0607C21.9708 17.342 22.3524 17.5 22.7502 17.5C23.148 17.5 23.5295 17.342 23.8108 17.0607C24.0921 16.7794 24.2502 16.3978 24.2502 16C24.2502 15.6022 24.0921 15.2206 23.8108 14.9393C23.5295 14.658 23.148 14.5 22.7502 14.5C22.3524 14.5 21.9708 14.658 21.6895 14.9393C21.4082 15.2206 21.2502 15.6022 21.2502 16ZM8.75018 16C8.75018 16.3978 8.90821 16.7794 9.18952 17.0607C9.47082 17.342 9.85235 17.5 10.2502 17.5C10.648 17.5 11.0295 17.342 11.3108 17.0607C11.5921 16.7794 11.7502 16.3978 11.7502 16C11.7502 15.6022 11.5921 15.2206 11.3108 14.9393C11.0295 14.658 10.648 14.5 10.2502 14.5C9.85235 14.5 9.47082 14.658 9.18952 14.9393C8.90821 15.2206 8.75018 15.6022 8.75018 16ZM29.4127 10.575C28.7064 8.89687 27.6939 7.39062 26.4033 6.09688C25.1217 4.81061 23.6003 3.78819 21.9252 3.0875C20.2064 2.36563 18.3814 2 16.5002 2H16.4377C14.5439 2.00938 12.7096 2.38438 10.9846 3.12188C9.32379 3.82975 7.81663 4.85399 6.54705 6.1375C5.26893 7.42812 4.2658 8.92813 3.57205 10.6C2.8533 12.3313 2.4908 14.1719 2.50018 16.0656C2.51078 18.2358 3.02421 20.3741 4.00018 22.3125V27.0625C4.00018 27.4437 4.15163 27.8094 4.42121 28.079C4.69079 28.3485 5.05643 28.5 5.43768 28.5H10.1908C12.1292 29.476 14.2675 29.9894 16.4377 30H16.5033C18.3752 30 20.1908 29.6375 21.9002 28.9281C23.5668 28.2358 25.0826 27.2253 26.3627 25.9531C27.6533 24.675 28.6689 23.1812 29.3783 21.5156C30.1158 19.7906 30.4908 17.9563 30.5002 16.0625C30.5096 14.1594 30.1408 12.3125 29.4127 10.575ZM24.6908 24.2625C22.5002 26.4313 19.5939 27.625 16.5002 27.625H16.4471C14.5627 27.6156 12.6908 27.1469 11.0377 26.2656L10.7752 26.125H6.37518V21.725L6.23455 21.4625C5.3533 19.8094 4.88455 17.9375 4.87518 16.0531C4.86268 12.9375 6.0533 10.0125 8.23768 7.80937C10.4189 5.60625 13.3346 4.3875 16.4502 4.375H16.5033C18.0658 4.375 19.5814 4.67812 21.0096 5.27812C22.4033 5.8625 23.6533 6.70312 24.7283 7.77812C25.8002 8.85 26.6439 10.1031 27.2283 11.4969C27.8346 12.9406 28.1377 14.4719 28.1314 16.0531C28.1127 19.1656 26.8908 22.0813 24.6908 24.2625Z" fill="#595959"/>
</svg>
