<svg width="17" height="24" viewBox="0 0 17 24" fill="none" xmlns="http://www.w3.org/2000/svg">
<path d="M8.5 14.8438C10.8842 14.8438 12.8164 12.9344 12.8164 10.5781V4.89062C12.8164 2.53437 10.8842 0.625 8.5 0.625C6.11582 0.625 4.18359 2.53437 4.18359 4.89062V10.5781C4.18359 12.9344 6.11582 14.8438 8.5 14.8438ZM16.8789 10.5273C16.8789 10.4156 16.7875 10.3242 16.6758 10.3242H15.1523C15.0406 10.3242 14.9492 10.4156 14.9492 10.5273C14.9492 14.0896 12.0623 16.9766 8.5 16.9766C4.9377 16.9766 2.05078 14.0896 2.05078 10.5273C2.05078 10.4156 1.95938 10.3242 1.84766 10.3242H0.324219C0.2125 10.3242 0.121094 10.4156 0.121094 10.5273C0.121094 14.8107 3.33555 18.3451 7.48438 18.8453V21.4453H3.79512C3.44727 21.4453 3.16797 21.8084 3.16797 22.2578V23.1719C3.16797 23.2836 3.23906 23.375 3.32539 23.375H13.6746C13.7609 23.375 13.832 23.2836 13.832 23.1719V22.2578C13.832 21.8084 13.5527 21.4453 13.2049 21.4453H9.41406V18.858C13.6111 18.401 16.8789 14.8463 16.8789 10.5273Z" fill="#434343"/>
</svg>
