<svg width="23" height="24" viewBox="0 0 23 24" fill="none" xmlns="http://www.w3.org/2000/svg">
<path d="M21.9707 7.59221C21.4011 6.23261 20.5723 4.99682 19.5307 3.95373C18.4922 2.90883 17.2585 2.07807 15.8998 1.50862C14.508 0.922428 13.0125 0.621947 11.5022 0.625023H11.4514C9.91526 0.632641 8.42991 0.937328 7.03089 1.53655C5.68384 2.11183 4.46179 2.94407 3.43304 3.98674C2.40149 5.02749 1.58224 6.25895 1.02093 7.61252C0.438251 9.02008 0.143007 10.53 0.152569 12.0533C0.160186 13.8155 0.58167 15.5649 1.36878 17.1289V20.9883C1.36878 21.6332 1.89183 22.1563 2.53421 22.1563H6.38851C7.95987 22.9492 9.69388 23.3664 11.4539 23.375H11.5073C13.0256 23.375 14.4957 23.0805 15.8821 22.5041C17.2339 21.9415 18.4629 21.1204 19.5002 20.0869C20.5463 19.0485 21.369 17.8348 21.9453 16.4815C22.542 15.0799 22.8467 13.5895 22.8543 12.0508C22.8594 10.5045 22.5598 9.00393 21.9707 7.59221ZM6.43421 13.2188C5.7639 13.2188 5.218 12.6729 5.218 12C5.218 11.3272 5.7639 10.7813 6.43421 10.7813C7.10452 10.7813 7.65042 11.3272 7.65042 12C7.65042 12.6729 7.10706 13.2188 6.43421 13.2188ZM11.5022 13.2188C10.8319 13.2188 10.286 12.6729 10.286 12C10.286 11.3272 10.8319 10.7813 11.5022 10.7813C12.1725 10.7813 12.7184 11.3272 12.7184 12C12.7184 12.6729 12.1725 13.2188 11.5022 13.2188ZM16.5701 13.2188C15.8998 13.2188 15.3539 12.6729 15.3539 12C15.3539 11.3272 15.8998 10.7813 16.5701 10.7813C17.2405 10.7813 17.7864 11.3272 17.7864 12C17.7864 12.6729 17.2405 13.2188 16.5701 13.2188Z" fill="#434343"/>
</svg>
